<?xml version="1.0" standalone="no"?>
<!DOCTYPE svg PUBLIC "-//W3C//DTD SVG 20010904//EN"
 "http://www.w3.org/TR/2001/REC-SVG-20010904/DTD/svg10.dtd">
<svg version="1.0" xmlns="http://www.w3.org/2000/svg"
 width="840.000000pt" height="859.000000pt" viewBox="0 0 840.000000 859.000000"
 preserveAspectRatio="xMidYMid meet">

<g transform="translate(0.000000,859.000000) scale(0.100000,-0.100000)"
fill="#000000" stroke="none">
<path d="M7345 8441 c-66 -53 -331 -268 -590 -476 -258 -209 -526 -425 -593
-480 -68 -55 -134 -108 -147 -118 -23 -17 -25 -17 -137 42 -393 207 -871 347
-1338 391 -164 16 -520 13 -690 -4 -846 -87 -1603 -446 -2200 -1045 -302 -302
-513 -595 -690 -956 -186 -381 -284 -706 -345 -1150 -22 -155 -31 -568 -16
-735 42 -476 167 -923 377 -1342 103 -205 285 -482 442 -671 154 -186 417
-438 595 -571 34 -25 37 -30 25 -46 -7 -10 -74 -96 -148 -192 -554 -708 -780
-1002 -780 -1014 0 -8 6 -14 13 -14 6 0 184 136 393 303 210 166 486 385 614
487 129 102 242 191 252 198 17 12 39 4 191 -72 409 -203 830 -327 1267 -371
249 -26 673 -17 905 19 636 98 1182 334 1708 737 149 114 470 431 591 584 409
516 660 1100 757 1760 27 184 37 591 20 801 -59 714 -332 1392 -793 1968 -107
134 -416 439 -550 545 -60 48 -104 89 -101 95 6 10 334 423 841 1061 100 127
200 253 222 280 39 49 47 69 33 78 -5 3 -62 -39 -128 -92z m-16 -70 c-8 -11
-130 -165 -271 -343 -141 -178 -314 -395 -384 -483 -200 -252 -537 -677 -659
-830 -61 -77 -177 -223 -257 -325 -81 -102 -231 -290 -333 -419 -102 -129
-184 -239 -182 -245 3 -8 173 -12 590 -16 l585 -5 -780 -825 c-1050 -1111
-972 -1025 -958 -1049 11 -21 15 -21 571 -21 l560 0 -488 -387 c-632 -500
-1082 -858 -1688 -1338 -269 -214 -537 -426 -595 -471 -58 -46 -243 -192 -411
-326 -169 -134 -486 -385 -705 -559 -220 -174 -462 -366 -539 -427 -76 -61
-141 -110 -143 -107 -2 2 225 297 505 656 279 358 571 733 648 833 78 100 293
376 479 615 186 239 339 441 340 450 1 14 -54 16 -552 21 l-552 5 386 405
c213 223 520 544 683 715 163 170 393 410 511 533 118 123 219 230 223 238 4
8 5 19 2 24 -4 6 -208 10 -571 10 -310 0 -564 3 -564 6 0 7 0 7 481 396 233
188 633 510 889 717 256 206 652 526 880 710 228 184 483 389 565 456 83 67
220 178 305 246 85 69 401 324 701 566 735 594 733 592 738 593 2 0 -3 -9 -10
-19z m-2624 -639 c343 -55 623 -132 900 -248 120 -50 328 -156 331 -169 3 -9
-121 -113 -163 -138 -9 -5 -59 13 -143 52 -306 144 -622 237 -972 287 -175 25
-605 30 -798 10 -508 -54 -1000 -223 -1432 -494 -805 -505 -1363 -1335 -1522
-2267 -45 -259 -59 -626 -35 -871 66 -672 310 -1269 737 -1804 104 -129 353
-377 487 -484 61 -48 111 -92 113 -96 3 -9 -114 -162 -127 -168 -17 -6 -242
188 -397 342 -173 174 -289 311 -410 484 -358 515 -575 1120 -625 1737 -18
228 -7 597 25 810 156 1037 743 1937 1633 2501 134 86 389 218 533 277 301
124 649 213 990 253 183 21 708 12 875 -14z m1750 -759 c221 -175 505 -475
666 -703 257 -363 452 -781 552 -1185 282 -1127 19 -2285 -718 -3168 -546
-654 -1306 -1090 -2148 -1232 -400 -67 -836 -65 -1230 6 -348 63 -747 199
-1031 353 l-99 53 77 64 c43 35 87 68 99 73 18 6 44 -3 122 -42 294 -147 644
-253 1020 -309 173 -26 717 -26 890 0 782 116 1431 444 1965 993 532 548 861
1259 930 2013 16 168 13 493 -5 666 -46 432 -175 849 -381 1229 -228 419 -528
769 -931 1086 l-32 25 66 83 c37 45 69 82 73 82 3 0 55 -39 115 -87z"/>
</g>
</svg>
